<svg xmlns="http://www.w3.org/2000/svg" viewBox="0 0 319.53 456">
    <g id="Layer_2" data-name="Layer 2">
        <g id="Layer_1-2" data-name="Layer 1"><path d="M310.76,318.6l-127.1,128c-7.1,6.3-15.3,9.4-23.5,9.4a31.85,31.85,0,0,1-22.63-9.38l-127.1-128A30.69,30.69,0,0,1,2.6,283.8,32.14,32.14,0,0,1,32.16,264h255.1a32,32,0,0,1,29.58,19.75C321.8,295.72,320,309.5,310.76,318.6Z"  fill="#000"/><path d="M9.39,137.4,136.5,9.4C143.61,3.1,151.81,0,160,0a31.87,31.87,0,0,1,22.64,9.38l127.1,128a32,32,0,0,1,6.94,34.88A31.14,31.14,0,0,1,287.11,192H32A32,32,0,0,1,9.39,137.4Z" fill="#000"/></g>
    </g>
</svg>
