<?xml version="1.0" encoding="UTF-8" standalone="no"?><svg   xmlns:svg="http://www.w3.org/2000/svg"   xmlns="http://www.w3.org/2000/svg"   version="1.1"   width="1024"   height="1024"   viewBox="0 0 1024 1024">  <path     d="M943.936 0C926.2719000000001 0 911.938 14.33789999999999 911.938 32.00199999999995V502.00199999999995C909.05812 483.80959999999993 898.4985 467.5372 882.563 457.63289999999995L146.851 11.024899999999889C136.5307 4.624509999999873 124.7865 1.3764599999998381 113.0746 1.3764599999998381C102.3549 1.3764599999998381 91.66640000000001 4.0483399999998255 81.9867 9.439939999999865C61.666399999999996 20.720239999999876 49.0746 42.144039999999904 49.0746 65.37643999999989L48.06679 958.6084399999999C48.06679 981.8564399999998 60.65859 1003.2646399999999 80.97889 1014.5449399999998C90.65858 1019.9209199999998 101.34609 1022.6093899999998 112.06579 1022.6093899999998C123.77769 1022.6093899999998 135.53749 1019.39357 145.84119 1012.9453299999998L882.56119 566.3373299999998C898.4966900000001 556.4652599999998 909.05629 540.1771299999998 911.93619 521.9848299999999V992.00083C911.93619 1009.6649299999999 926.27209 1024.00083 943.93619 1024.00083S975.93619 1009.6649299999999 975.93619 992.00083V32.00082999999984C975.93619 14.336729999999875 961.61589 0.0008299999998371277 943.9359900000001 0.000029999999810570444zM112.065 958.61035L113.057188 65.39435000000003L848.801188 511.98635z"   fill="#000" /></svg>
