<?xml version="1.0" encoding="UTF-8" standalone="no"?><svg   xmlns:svg="http://www.w3.org/2000/svg"   xmlns="http://www.w3.org/2000/svg"   version="1.1"   width="1024"   height="1024"   viewBox="0 0 1024 1024">  <path     d="M974.944 65.39200000000005C974.944 42.15960000000007 962.3521999999999 20.737700000000018 942.0319 9.457400000000007C932.3522099999999 4.065799999999967 921.6637 1.39391999999998 910.944 1.39391999999998C899.2321 1.39391999999998 887.4722999999999 4.626340000000027 877.1686 11.04236000000003L141.44060000000002 457.63436C125.48850000000002 467.53865999999994 114.92890000000001 483.84236 112.06460000000001 502.03476V32.00276000000008C112.06460000000001 14.338660000000118 97.72870000000002 0.002760000000080254 80.06460000000001 0.002760000000080254S48.06460000000001 14.338660000000118 48.06460000000001 32.00276000000008V992.0027600000001C48.06460000000001 1009.66686 62.400500000000015 1024.00276 80.06460000000001 1024.00276C97.72870000000002 1024.00276 112.06460000000001 1009.66686 112.06460000000001 992.0027600000001V521.93876C114.94448000000001 540.1467600000001 125.50410000000001 556.45046 141.4396 566.3225600000001L878.1596000000001 1012.9625599999999C888.4799 1019.3942 900.2241 1022.62662 911.936 1022.62662C922.6557 1022.62662 933.3442 1019.93814 943.0239 1014.5621700000002C963.3442 1003.28187 975.936 981.87367 975.936 958.62567zM175.2 511.985L910.944 65.39300000000003L911.9518099999999 958.609z"   fill="#000" /></svg>
