<?xml version="1.0" encoding="UTF-8" standalone="no"?>
<svg xmlns:svg="http://www.w3.org/2000/svg" xmlns="http://www.w3.org/2000/svg" version="1.1" width="1000" height="1000" viewBox="0 0 1000 1000">
    <path
        d="M771 996H229C218 996 208 986 208 975V253C208 248 211 242 215 238L410 43C462 -9 545 -9 597 43L786 239C790 243 792 248 792 253V975C792 986 782 996 771 996zM250 954H750V262L567 72C532 37 475 37 439 73L250 262V954zM500 810C442 810 403 776 403 725C403 714 412 704 424 704S444 714 444 725C444 765 487 768 500 768S556 765 556 725C556 701 549 696 503 673L479 661C435 640 403 624 403 572C403 521 442 487 500 487C558 487 597 521 597 572C597 583 587 593 576 593C564 593 555 583 555 572C555 531 513 528 500 528C487 528 444 531 444 572C444 596 452 601 497 624L521 636C566 658 598 673 598 725C598 776 558 810 500 810zM498 468C492 468 487 466 483 462C479 458 477 453 477 448C477 442 479 436 483 433C490 425 504 425 512 433C516 437 518 442 518 448C518 453 516 458 512 462C508 466 503 468 498 468zM498 871C492 871 486 869 482 864C479 861 476 855 476 850S479 839 482 835C489 827 504 827 512 835C516 839 518 844 518 850S516 861 512 865C508 869 503 871 498 871zM507 304C465 304 430 270 430 228C430 186 465 151 507 151S583 186 583 228C583 270 549 304 507 304zM507 193C488 193 472 209 472 228S488 262 507 262S541 247 541 228S526 193 507 193z"
        id="pricing" fill="#000"/></svg>
