<svg   xmlns:svg="http://www.w3.org/2000/svg"   xmlns="http://www.w3.org/2000/svg"   version="1.1"   width="1024"   height="1024"   viewBox="0 0 1024 1024">  <path     d="M515.664 -0.36800000000005184C305.76 -0.36800000000005184 128 178.39999999999998 128 390.17599999999993C128 611.9359999999999 334.03200000000004 838.7199999999999 472.624 998.1120000000001C473.15232000000003 998.7516479999999 495.5527 1023.6315 523.1523 1023.6315H525.60054C553.20014 1023.6315 575.44034 998.7516 575.99994 998.1120000000001C706.06394 848.592 895.99994 602.064 895.99994 390.17599999999993C895.99994 178.39999999999986 757.34394 -0.36800000000005184 515.66394 -0.36800000000005184zM528.496 955.18359C527.3758799999999 956.30371 525.74307 957.55273 524.30264 958.59277C522.83096 957.58496 521.23135 956.30468 520.04776 955.18457L503.31146 935.93657C371.91946 785.20057 191.99946 578.78457 191.99946 390.17557C191.99946 213.16756999999996 340.22346 63.615569999999934 515.66346 63.615569999999934C734.19146 63.615569999999934 831.99946 227.61556999999993 831.99946 390.1755699999999C831.99946 533.3595699999998 729.87146 723.4715699999999 528.49546 955.1835699999999zM513.119 193.40800000000002C407.08700000000005 193.40800000000002 321.119 279.3758 321.119 385.408S407.08680000000004 577.408 513.119 577.408S705.119 491.4402 705.119 385.408S619.1512 193.40800000000002 513.119 193.40800000000002zM513.119 513.408C442.54280000000006 513.408 383.646 454.59159999999997 383.646 384C383.646 313.4238 441.0698 256 511.646 256C582.27 256 639.646 313.4238 639.646 384C639.6782265999999 454.59180000000003 583.7427 513.408 513.1189999999999 513.408z"  fill="#000" /></svg>
