<svg xmlns:svg="http://www.w3.org/2000/svg" xmlns="http://www.w3.org/2000/svg" version="1.1" width="1000" height="1000" viewBox="0 0 1000 1000">
    <path
        d="M389 747C294 747 204 709 136 642C-3 502 -3 275 136 135C204 67 294 30 389 30C484 30 574 67 642 135C781 275 781 502 642 642C574 709 484 747 389 747zM389 72C305 72 226 105 166 164C43 288 43 489 166 612C226 672 305 705 389 705S552 672 612 612C735 489 735 288 612 164C552 105 473 72 389 72zM898 970C880 970 864 963 851 951L563 661L660 564L949 853C975 879 975 921 949 947L945 951C933 963 916 970 898 970zM622 661L881 921C890 930 906 931 916 921L919 918C929 908 929 892 919 882L660 623L622 661z"
        id="magnifi-glass"  fill="#000" /></svg>
