<?xml version="1.0" encoding="UTF-8" standalone="no"?>
<svg xmlns:svg="http://www.w3.org/2000/svg" xmlns="http://www.w3.org/2000/svg" version="1.1" width="1000" height="1000" viewBox="0 0 1000 1000">
    <path
        d="M979 1000H20C9 1000 0 991 0 979V854C0 843 9 833 20 833H979C990 833 1000 843 1000 854V979C1000 991 990 1000 979 1000zM41 958H958V875H41V958zM895 875H104C92 875 83 866 83 854V729C83 718 92 708 104 708H895C907 708 916 718 916 729V854C916 866 907 875 895 875zM125 833H875V750H125V833zM270 667H145C134 667 125 657 125 646V271C125 259 134 250 145 250H270C282 250 291 259 291 271V646C291 657 282 667 270 667zM166 625H250V292H166V625zM854 667H729C717 667 708 657 708 646V271C708 259 717 250 729 250H854C865 250 875 259 875 271V646C875 657 865 667 854 667zM750 625H833V292H750V625zM980 208C979 208 979 208 979 208H20C10 208 2 201 0 191C-2 181 4 171 14 168L493 1C497 0 502 0 506 1L983 167C993 169 1000 177 1000 187C1000 199 991 208 980 208zM144 167H855L500 43L144 167zM516 605C469 605 437 574 437 530C437 518 446 509 458 509C469 509 479 518 479 530C479 559 502 563 516 563S552 559 552 530C552 510 548 506 514 488L496 477C463 459 437 444 437 399C437 355 469 324 516 324C562 324 593 354 593 399C593 411 584 420 572 420C561 420 551 411 551 399C551 370 529 365 516 365C505 365 479 369 479 399C479 419 483 422 516 441L535 451C568 470 594 484 594 530C594 574 562 605 516 605zM513 314C508 314 503 312 499 308C495 304 493 299 493 293C493 288 495 282 499 279C507 271 520 271 528 279C532 282 534 288 534 293C534 299 532 304 528 308C525 312 519 314 513 314zM513 656C508 656 503 654 499 650C495 646 493 641 493 635S495 625 499 621C507 613 520 613 528 621C532 625 534 630 534 635S532 646 528 650C524 654 519 656 513 656z"
        id="bank" fill="#000"/></svg>
