<?xml version="1.0" encoding="UTF-8" standalone="no"?>
<svg xmlns:svg="http://www.w3.org/2000/svg" xmlns="http://www.w3.org/2000/svg" version="1.1" width="1000" height="1000" viewBox="0 0 1000 1000">
    <path
        d="M864 999H136C92 999 42 964 42 920C41 916 40 901 42 892C74 763 276 360 285 343L290 332H710L716 343C724 360 926 763 958 892C960 901 959 916 958 924C958 967 909 999 864 999zM316 374C282 441 110 789 83 901C83 904 83 911 83 917C84 938 113 957 136 957H864C887 957 916 941 916 923C917 913 917 904 917 901C890 789 718 441 684 373L316 374L316 374zM625 374M708 290H292C280 290 271 281 271 269S280 249 292 249H708C720 249 729 258 729 269S720 290 708 290zM459 207C459 207 459 207 458 207H375C358 205 229 190 194 132C183 115 181 95 189 75C205 31 252 1 306 1C371 1 450 48 478 176C479 179 480 183 480 186C480 198 471 207 459 207zM306 43C270 43 238 62 228 89C225 97 225 104 229 111C248 141 330 160 377 165L432 165C400 52 328 43 306 43zM622 207H538C532 207 526 204 522 199C518 194 517 188 518 182C545 49 625 1 691 1C745 1 791 31 808 74C816 95 814 115 803 132C767 190 638 205 624 207C623 207 622 207 622 207zM565 165H621C668 160 749 141 767 111C772 104 772 97 769 89C759 62 727 43 691 43C668 43 596 52 565 165zM502 850C436 850 392 811 392 755C392 743 401 734 413 734S433 743 433 755C433 804 486 808 502 808S570 804 570 755C570 723 558 716 507 691L478 677C428 652 392 634 392 576C392 519 436 480 502 480C567 480 611 519 611 576C611 588 601 597 590 597C578 597 569 588 569 576C569 526 518 522 502 522C469 522 433 536 433 576C433 607 445 614 497 639L525 654C576 679 612 696 612 755C612 811 568 850 502 850zM500 519C489 519 479 510 479 499V457C479 445 489 436 500 436S521 445 521 457V499C521 510 512 519 500 519zM500 894C489 894 479 885 479 874V832C479 820 489 811 500 811S521 820 521 832V874C521 885 512 894 500 894z"
        id="money-bag" fill="#000"/></svg>
